<?xml version="1.0" encoding="UTF-8" standalone="no"?>
<svg
   xmlns:dc="http://purl.org/dc/elements/1.1/"
   xmlns:cc="http://creativecommons.org/ns#"
   xmlns:rdf="http://www.w3.org/1999/02/22-rdf-syntax-ns#"
   xmlns:svg="http://www.w3.org/2000/svg"
   xmlns="http://www.w3.org/2000/svg"
   xmlns:sodipodi="http://sodipodi.sourceforge.net/DTD/sodipodi-0.dtd"
   xmlns:inkscape="http://www.inkscape.org/namespaces/inkscape"
   inkscape:version="1.0 (4035a4fb49, 2020-05-01)"
   height="1080"
   width="3526.374"
   sodipodi:docname="Logo del ITAM.svg"
   xml:space="preserve"
   viewBox="0 0 3526.374 1080"
   y="0px"
   x="0px"
   id="Capa_1"
   version="1.1"><metadata
   id="metadata25"><rdf:RDF><cc:Work
       rdf:about=""><dc:format>image/svg+xml</dc:format><dc:type
         rdf:resource="http://purl.org/dc/dcmitype/StillImage" /><dc:title></dc:title></cc:Work></rdf:RDF></metadata><defs
   id="defs23" /><sodipodi:namedview
   inkscape:current-layer="Capa_1"
   inkscape:window-maximized="1"
   inkscape:window-y="-8"
   inkscape:window-x="1352"
   inkscape:cy="1386.4423"
   inkscape:cx="1805.3826"
   inkscape:zoom="0.12911723"
   fit-margin-bottom="0"
   fit-margin-right="0"
   fit-margin-left="0"
   fit-margin-top="0"
   showgrid="false"
   id="namedview21"
   inkscape:window-height="1017"
   inkscape:window-width="1920"
   inkscape:pageshadow="2"
   inkscape:pageopacity="0"
   guidetolerance="10"
   gridtolerance="10"
   objecttolerance="10"
   borderopacity="1"
   bordercolor="#666666"
   pagecolor="#ffffff" />
<style
   id="style2"
   type="text/css">
	.st0{fill:#FDFDFD;}
	.st1{fill:#016853;}
	.st2{fill:#FEFEFE;}
</style>
<g
   transform="matrix(3.6608733,0,0,3.6608733,-1753.4847,-1433.009)"
   id="g18">
	<g
   id="g16">
		
		<path
   id="path6"
   d="m 1279.13,391.55 c 44.99,0 89.97,0.22 134.96,-0.11 17.34,-0.13 28.21,13.93 28.15,27.89 -0.35,87.58 -0.19,175.16 -0.11,262.74 0,3.23 -0.56,4.39 -4.16,4.36 -21.99,-0.19 -43.99,-0.16 -65.98,-0.02 -3.05,0.02 -3.61,-0.91 -3.61,-3.73 0.08,-71.46 0.06,-142.93 0.06,-214.39 0,-9.94 -3.37,-13.36 -13.17,-13.36 -11.62,0 -23.25,0.21 -34.86,-0.11 -3.98,-0.11 -4.55,1.18 -4.54,4.76 0.11,74.09 0.04,148.18 0.18,222.26 0.01,3.85 -1,4.62 -4.68,4.59 -21.62,-0.19 -43.24,-0.18 -64.85,0 -3.56,0.03 -4.55,-0.77 -4.54,-4.45 0.12,-74.09 0.09,-148.18 0.08,-222.26 0,-5.42 0.63,-4.75 -4.8,-4.77 -12.12,-0.04 -24.24,-0.03 -36.36,-0.03 -6.87,0 -10.96,3.89 -11.27,10.75 -0.05,1 -0.01,2 -0.01,3 0,71.09 -0.03,142.18 0.08,213.27 0.01,3.59 -0.83,4.54 -4.48,4.51 -21.87,-0.19 -43.74,-0.15 -65.6,-0.03 -2.95,0.02 -3.98,-0.46 -3.97,-3.76 0.11,-87.58 0.08,-175.16 0.09,-262.74 0,-17.21 11.13,-28.22 28.44,-28.22 44.99,0 89.97,0 134.96,0 -0.01,-0.07 -0.01,-0.11 -0.01,-0.15 z"
   class="st1" />
		<path
   id="path8"
   d="m 1084.23,539.26 c 0,40.11 0,80.21 0,120.32 0,15.32 -11.37,26.73 -26.72,26.74 -66.98,0.02 -133.97,0.03 -200.95,0 -25.26,-0.01 -45.91,-20.81 -45.92,-46.1 -0.01,-31.61 0,-63.22 0,-94.83 0,-28.37 19.75,-48.39 48.21,-48.47 44.24,-0.13 88.48,-0.04 132.72,-0.04 5.37,0 10.75,-0.1 16.12,0.04 2.28,0.06 3.01,-0.65 2.98,-2.96 -0.12,-9.12 0.03,-18.24 -0.07,-27.36 -0.09,-7.77 -4.21,-11.7 -11.9,-11.7 -38.62,0.02 -77.23,-0.01 -115.85,0.1 -2.96,0.01 -4.07,-0.53 -4.04,-3.8 0.16,-18.62 0.15,-37.23 0.01,-55.85 -0.02,-2.95 0.74,-3.73 3.71,-3.73 58.49,0.09 116.97,0.06 175.46,0.08 14.7,0.01 26.24,11.7 26.24,26.5 0.01,40.35 0,80.7 0,121.06 z"
   class="st1" />
		<path
   id="path10"
   d="m 716.11,391.67 c 44.24,0 88.48,0.04 132.72,-0.08 3.24,-0.01 4.2,0.68 4.17,4.07 -0.18,18.49 -0.17,36.98 -0.01,55.47 0.03,3.23 -1,3.86 -4.01,3.85 -30.74,-0.11 -61.48,-0.03 -92.23,-0.16 -3.11,-0.01 -3.92,0.79 -3.92,3.89 0.09,74.47 0.05,148.93 0.15,223.4 0,3.35 -0.74,4.32 -4.22,4.29 -21.87,-0.17 -43.74,-0.17 -65.61,0 -3.3,0.02 -4.07,-0.77 -4.07,-4.07 0.11,-74.34 0.06,-148.68 0.17,-223.02 0.01,-3.59 -0.79,-4.52 -4.47,-4.5 -30.62,0.18 -61.23,0.05 -91.85,0.18 -3.25,0.01 -3.86,-1.03 -3.84,-4.02 0.13,-18.49 0.15,-36.98 -0.01,-55.47 -0.03,-3.15 0.85,-3.91 3.94,-3.9 44.36,0.11 88.73,0.07 133.09,0.07 z"
   class="st1" />
		<path
   id="path12"
   d="m 479.06,538.86 c 0,-47.73 0.04,-95.46 -0.08,-143.18 -0.01,-3.27 0.73,-4.12 4.06,-4.09 22.12,0.17 44.24,0.14 66.36,0.02 2.73,-0.01 3.61,0.58 3.61,3.47 -0.09,96.08 -0.09,192.16 -0.03,288.24 0,2.57 -0.78,3.06 -3.14,3.05 -22.49,-0.08 -44.99,-0.12 -67.48,0.04 -3.03,0.02 -3.35,-1.03 -3.35,-3.61 0.07,-47.98 0.05,-95.96 0.05,-143.94 z"
   class="st1" />
		<path
   id="path14"
   d="m 955.62,560.24 c 17.24,0 34.49,0.06 51.73,-0.06 2.59,-0.02 3.36,0.63 3.33,3.29 -0.14,13.62 0,27.23 -0.08,40.85 -0.07,12.14 -7.01,18.9 -19.16,18.9 -28.49,0 -56.98,0.01 -85.47,0 -12.61,0 -21.32,-8.78 -21.33,-21.46 -0.01,-6.75 -0.01,-13.49 0,-20.24 0.01,-12.44 8.76,-21.26 21.13,-21.27 16.61,-0.01 33.23,-0.01 49.85,-0.01 z"
   class="st2" />
	</g>
</g>
</svg>
